<svg width="1280" height="640" viewBox="0 0 1280 640" fill="none" xmlns="http://www.w3.org/2000/svg">
  <rect width="1280" height="640" fill="#0B1220"/>
  <rect width="1280" height="640" fill="url(#bg)"/>

  <circle cx="1090" cy="108" r="184" fill="#8B5CF6" fill-opacity="0.16"/>
  <circle cx="124" cy="560" r="220" fill="#22C55E" fill-opacity="0.12"/>
  <circle cx="980" cy="520" r="132" fill="#38BDF8" fill-opacity="0.07"/>

  <rect x="72" y="72" width="1136" height="496" rx="36" fill="#111827" fill-opacity="0.88" stroke="#334155"/>

  <text x="112" y="154" fill="#CBD5E1" font-family="Segoe UI, Arial, sans-serif" font-size="28" font-weight="700" letter-spacing="4">
    LIL JOHNNY
  </text>

  <text x="112" y="236" fill="white" font-family="Segoe UI, Arial, sans-serif" font-size="68" font-weight="800">
    Personal daily
  </text>
  <text x="112" y="308" fill="white" font-family="Segoe UI, Arial, sans-serif" font-size="68" font-weight="800">
    command center
  </text>

  <text x="112" y="368" fill="#CBD5E1" font-family="Segoe UI, Arial, sans-serif" font-size="28">
    Reminders, cyber intel, gym tracking,
  </text>
  <text x="112" y="408" fill="#CBD5E1" font-family="Segoe UI, Arial, sans-serif" font-size="28">
    gaming feeds, and OSRS progress
  </text>

  <rect x="112" y="454" width="202" height="56" rx="18" fill="#1E1B4B" stroke="#8B5CF6"/>
  <text x="138" y="489" fill="white" font-family="Segoe UI, Arial, sans-serif" font-size="22" font-weight="700">
    Expo + React Native
  </text>

  <rect x="334" y="454" width="136" height="56" rx="18" fill="#14532D" stroke="#22C55E"/>
  <text x="370" y="489" fill="white" font-family="Segoe UI, Arial, sans-serif" font-size="22" font-weight="700">
    Android
  </text>

  <rect x="490" y="454" width="154" height="56" rx="18" fill="#1F2937" stroke="#94A3B8"/>
  <text x="524" y="489" fill="white" font-family="Segoe UI, Arial, sans-serif" font-size="22" font-weight="700">
    Version 1.1
  </text>

  <rect x="840" y="138" width="286" height="318" rx="32" fill="#0F172A" stroke="#334155"/>
  <circle cx="983" cy="246" r="96" fill="#1E1B4B"/>
  <circle cx="983" cy="246" r="84" fill="#111827" stroke="#8B5CF6" stroke-width="10"/>
  <text x="953" y="266" fill="white" font-family="Segoe UI, Arial, sans-serif" font-size="54" font-weight="800">
    H
  </text>

  <rect x="884" y="376" width="198" height="14" rx="7" fill="#1F2937"/>
  <rect x="884" y="376" width="142" height="14" rx="7" fill="#8B5CF6"/>

  <text x="884" y="430" fill="#E2E8F0" font-family="Segoe UI, Arial, sans-serif" font-size="26" font-weight="700">
    Built to feel sharp,
  </text>
  <text x="884" y="466" fill="#CBD5E1" font-family="Segoe UI, Arial, sans-serif" font-size="24">
    fast, and personal
  </text>

  <defs>
    <linearGradient id="bg" x1="110" y1="38" x2="1172" y2="612" gradientUnits="userSpaceOnUse">
      <stop stop-color="#1E1B4B"/>
      <stop offset="0.52" stop-color="#0B1220"/>
      <stop offset="1" stop-color="#14532D"/>
    </linearGradient>
  </defs>
</svg>
